<svg xmlns="http://www.w3.org/2000/svg" width="1920" height="1080"><path d="M254,-261L463,-253L842,-262Z" fill="#e3e3e3" stroke="#e3e3e3" stroke-width="1.51"></path><path d="M684,1312L38,1308L1288,1341Z" fill="#5e5e5e" stroke="#5e5e5e" stroke-width="1.51"></path><path d="M842,-262L1389,-247L1459,-262Z" fill="#b7b7b7" stroke="#b7b7b7" stroke-width="1.51"></path><path d="M1459,-262L1831,-235L1961,-250Z" fill="#929292" stroke="#929292" stroke-width="1.51"></path><path d="M2039,670L1948,807L2059,864Z" fill="#3f3f3f" stroke="#3f3f3f" stroke-width="1.51"></path><path d="M2050,-65L2053,127L2061,-182Z" fill="#757575" stroke="#757575" stroke-width="1.51"></path><path d="M1624,1317L1288,1341L2068,1315Z" fill="#272727" stroke="#272727" stroke-width="1.51"></path><path d="M1816,1280L1624,1317L2068,1315Z" fill="#1c1c1c" stroke="#1c1c1c" stroke-width="1.51"></path><path d="M2059,1132L1946,1245L2068,1315Z" fill="#181818" stroke="#181818" stroke-width="1.51"></path><path d="M1973,636L2039,670L2081,508Z" fill="#4b4b4b" stroke="#4b4b4b" stroke-width="1.51"></path><path d="M1977,527L1973,636L2081,508Z" fill="#505050" stroke="#505050" stroke-width="1.51"></path><path d="M2053,127L2043,232L2081,508Z" fill="#636363" stroke="#636363" stroke-width="1.51"></path><path d="M2043,232L2037,430L2081,508Z" fill="#5b5b5b" stroke="#5b5b5b" stroke-width="1.51"></path><path d="M2039,670L2059,864L2081,508Z" fill="#444444" stroke="#444444" stroke-width="1.51"></path><path d="M2061,-182L2053,127L2081,508Z" fill="#6b6b6b" stroke="#6b6b6b" stroke-width="1.51"></path><path d="M2059,864L1905,949L2113,987Z" fill="#333333" stroke="#333333" stroke-width="1.51"></path><path d="M1905,949L1983,1102L2113,987Z" fill="#2d2d2d" stroke="#2d2d2d" stroke-width="1.51"></path><path d="M1983,1102L2059,1132L2113,987Z" fill="#242424" stroke="#242424" stroke-width="1.51"></path><path d="M2059,1132L2068,1315L2113,987Z" fill="#1c1c1c" stroke="#1c1c1c" stroke-width="1.51"></path><path d="M2061,-182L2081,508L2113,987Z" fill="#565656" stroke="#565656" stroke-width="1.51"></path><path d="M2081,508L2059,864L2113,987Z" fill="#3a3a3a" stroke="#3a3a3a" stroke-width="1.51"></path><path d="M1939,418L2037,430L2043,232Z" fill="#616161" stroke="#616161" stroke-width="1.51"></path><path d="M1898,287L1939,418L2043,232Z" fill="#676767" stroke="#676767" stroke-width="1.51"></path><path d="M2050,-65L1903,54L2053,127Z" fill="#747474" stroke="#747474" stroke-width="1.51"></path><path d="M1946,1245L1816,1280L2068,1315Z" fill="#181818" stroke="#181818" stroke-width="1.51"></path><path d="M2037,430L1977,527L2081,508Z" fill="#555555" stroke="#555555" stroke-width="1.51"></path><path d="M1459,-262L1636,-203L1831,-235Z" fill="#9b9b9b" stroke="#9b9b9b" stroke-width="1.51"></path><path d="M1897,-64L1903,54L2050,-65Z" fill="#7b7b7b" stroke="#7b7b7b" stroke-width="1.51"></path><path d="M1983,1102L1946,1245L2059,1132Z" fill="#1e1e1e" stroke="#1e1e1e" stroke-width="1.51"></path><path d="M1897,-64L2050,-65L2061,-182Z" fill="#7b7b7b" stroke="#7b7b7b" stroke-width="1.51"></path><path d="M1948,807L1905,949L2059,864Z" fill="#3a3a3a" stroke="#3a3a3a" stroke-width="1.51"></path><path d="M1961,-250L1897,-64L2061,-182Z" fill="#7f7f7f" stroke="#7f7f7f" stroke-width="1.51"></path><path d="M1903,54L1898,287L2043,232Z" fill="#6f6f6f" stroke="#6f6f6f" stroke-width="1.51"></path><path d="M1903,54L2043,232L2053,127Z" fill="#707070" stroke="#707070" stroke-width="1.51"></path><path d="M1973,636L1948,807L2039,670Z" fill="#464646" stroke="#464646" stroke-width="1.51"></path><path d="M1939,418L1977,527L2037,430Z" fill="#5a5a5a" stroke="#5a5a5a" stroke-width="1.51"></path><path d="M1767,203L1898,287L1903,54Z" fill="#767676" stroke="#767676" stroke-width="1.51"></path><path d="M1831,-235L1897,-64L1961,-250Z" fill="#848484" stroke="#848484" stroke-width="1.51"></path><path d="M1839,795L1948,807L1973,636Z" fill="#474747" stroke="#474747" stroke-width="1.51"></path><path d="M1776,733L1839,795L1973,636Z" fill="#4c4c4c" stroke="#4c4c4c" stroke-width="1.51"></path><path d="M1767,483L1973,636L1977,527Z" fill="#575757" stroke="#575757" stroke-width="1.51"></path><path d="M1826,1139L1946,1245L1983,1102Z" fill="#222222" stroke="#222222" stroke-width="1.51"></path><path d="M1905,949L1826,1139L1983,1102Z" fill="#2c2c2c" stroke="#2c2c2c" stroke-width="1.51"></path><path d="M1939,418L1767,483L1977,527Z" fill="#5e5e5e" stroke="#5e5e5e" stroke-width="1.51"></path><path d="M1767,483L1776,733L1973,636Z" fill="#565656" stroke="#565656" stroke-width="1.51"></path><path d="M1758,125L1767,203L1903,54Z" fill="#7d7d7d" stroke="#7d7d7d" stroke-width="1.51"></path><path d="M1823,950L1826,1139L1905,949Z" fill="#353535" stroke="#353535" stroke-width="1.51"></path><path d="M1839,795L1905,949L1948,807Z" fill="#404040" stroke="#404040" stroke-width="1.51"></path><path d="M1826,1139L1816,1280L1946,1245Z" fill="#202020" stroke="#202020" stroke-width="1.51"></path><path d="M1839,795L1823,950L1905,949Z" fill="#404040" stroke="#404040" stroke-width="1.51"></path><path d="M1898,287L1747,425L1939,418Z" fill="#686868" stroke="#686868" stroke-width="1.51"></path><path d="M1831,-235L1829,-56L1897,-64Z" fill="#858585" stroke="#858585" stroke-width="1.51"></path><path d="M1747,425L1767,483L1939,418Z" fill="#666666" stroke="#666666" stroke-width="1.51"></path><path d="M842,-262L1182,-206L1389,-247Z" fill="#bdbdbd" stroke="#bdbdbd" stroke-width="1.51"></path><path d="M1897,-64L1829,-56L1903,54Z" fill="#7f7f7f" stroke="#7f7f7f" stroke-width="1.51"></path><path d="M1829,-56L1758,125L1903,54Z" fill="#808080" stroke="#808080" stroke-width="1.51"></path><path d="M1767,203L1747,425L1898,287Z" fill="#737373" stroke="#737373" stroke-width="1.51"></path><path d="M1459,1292L1288,1341L1624,1317Z" fill="#333333" stroke="#333333" stroke-width="1.51"></path><path d="M1636,499L1629,694L1767,483Z" fill="#686868" stroke="#686868" stroke-width="1.51"></path><path d="M1665,231L1747,425L1767,203Z" fill="#7a7a7a" stroke="#7a7a7a" stroke-width="1.51"></path><path d="M1767,483L1629,694L1776,733Z" fill="#5e5e5e" stroke="#5e5e5e" stroke-width="1.51"></path><path d="M1640,865L1657,938L1823,950Z" fill="#494949" stroke="#494949" stroke-width="1.51"></path><path d="M1607,1165L1816,1280L1826,1139Z" fill="#2a2a2a" stroke="#2a2a2a" stroke-width="1.51"></path><path d="M1823,950L1657,938L1826,1139Z" fill="#3b3b3b" stroke="#3b3b3b" stroke-width="1.51"></path><path d="M1657,938L1607,1165L1826,1139Z" fill="#393939" stroke="#393939" stroke-width="1.51"></path><path d="M1628,-46L1758,125L1829,-56Z" fill="#898989" stroke="#898989" stroke-width="1.51"></path><path d="M1636,-203L1628,-46L1829,-56Z" fill="#929292" stroke="#929292" stroke-width="1.51"></path><path d="M1636,-203L1829,-56L1831,-235Z" fill="#8e8e8e" stroke="#8e8e8e" stroke-width="1.51"></path><path d="M1640,865L1823,950L1839,795Z" fill="#484848" stroke="#484848" stroke-width="1.51"></path><path d="M1776,733L1640,865L1839,795Z" fill="#4f4f4f" stroke="#4f4f4f" stroke-width="1.51"></path><path d="M1607,1165L1624,1317L1816,1280Z" fill="#2a2a2a" stroke="#2a2a2a" stroke-width="1.51"></path><path d="M1665,231L1611,412L1747,425Z" fill="#7a7a7a" stroke="#7a7a7a" stroke-width="1.51"></path><path d="M1628,-46L1646,144L1758,125Z" fill="#8b8b8b" stroke="#8b8b8b" stroke-width="1.51"></path><path d="M1629,694L1640,865L1776,733Z" fill="#575757" stroke="#575757" stroke-width="1.51"></path><path d="M1747,425L1636,499L1767,483Z" fill="#6c6c6c" stroke="#6c6c6c" stroke-width="1.51"></path><path d="M1758,125L1646,144L1767,203Z" fill="#838383" stroke="#838383" stroke-width="1.51"></path><path d="M1646,144L1665,231L1767,203Z" fill="#838383" stroke="#838383" stroke-width="1.51"></path><path d="M1611,412L1636,499L1747,425Z" fill="#737373" stroke="#737373" stroke-width="1.51"></path><path d="M867,1269L684,1312L1288,1341Z" fill="#4f4f4f" stroke="#4f4f4f" stroke-width="1.51"></path><path d="M1441,219L1449,395L1611,412Z" fill="#888888" stroke="#888888" stroke-width="1.51"></path><path d="M1607,1165L1536,1183L1624,1317Z" fill="#343434" stroke="#343434" stroke-width="1.51"></path><path d="M1506,660L1629,694L1636,499Z" fill="#6a6a6a" stroke="#6a6a6a" stroke-width="1.51"></path><path d="M1479,563L1506,660L1636,499Z" fill="#717171" stroke="#717171" stroke-width="1.51"></path><path d="M1528,-87L1628,-46L1636,-203Z" fill="#9b9b9b" stroke="#9b9b9b" stroke-width="1.51"></path><path d="M1629,694L1483,882L1640,865Z" fill="#5b5b5b" stroke="#5b5b5b" stroke-width="1.51"></path><path d="M1459,145L1441,219L1646,144Z" fill="#939393" stroke="#939393" stroke-width="1.51"></path><path d="M1628,-46L1459,145L1646,144Z" fill="#939393" stroke="#939393" stroke-width="1.51"></path><path d="M1525,981L1607,1165L1657,938Z" fill="#464646" stroke="#464646" stroke-width="1.51"></path><path d="M1646,144L1441,219L1665,231Z" fill="#8c8c8c" stroke="#8c8c8c" stroke-width="1.51"></path><path d="M1441,219L1611,412L1665,231Z" fill="#878787" stroke="#878787" stroke-width="1.51"></path><path d="M1528,-87L1459,145L1628,-46Z" fill="#9a9a9a" stroke="#9a9a9a" stroke-width="1.51"></path><path d="M1506,660L1483,882L1629,694Z" fill="#636363" stroke="#636363" stroke-width="1.51"></path><path d="M1640,865L1525,981L1657,938Z" fill="#505050" stroke="#505050" stroke-width="1.51"></path><path d="M1525,981L1536,1183L1607,1165Z" fill="#404040" stroke="#404040" stroke-width="1.51"></path><path d="M1483,882L1525,981L1640,865Z" fill="#565656" stroke="#565656" stroke-width="1.51"></path><path d="M1536,1183L1459,1292L1624,1317Z" fill="#343434" stroke="#343434" stroke-width="1.51"></path><path d="M1611,412L1479,563L1636,499Z" fill="#767676" stroke="#767676" stroke-width="1.51"></path><path d="M1459,-262L1528,-87L1636,-203Z" fill="#a2a2a2" stroke="#a2a2a2" stroke-width="1.51"></path><path d="M1449,395L1479,563L1611,412Z" fill="#7d7d7d" stroke="#7d7d7d" stroke-width="1.51"></path><path d="M1061,1261L867,1269L1288,1341Z" fill="#4a4a4a" stroke="#4a4a4a" stroke-width="1.51"></path><path d="M1311,715L1483,882L1506,660Z" fill="#696969" stroke="#696969" stroke-width="1.51"></path><path d="M1386,970L1328,1135L1525,981Z" fill="#515151" stroke="#515151" stroke-width="1.51"></path><path d="M1459,-262L1389,-247L1528,-87Z" fill="#a8a8a8" stroke="#a8a8a8" stroke-width="1.51"></path><path d="M1389,-247L1336,-68L1528,-87Z" fill="#a7a7a7" stroke="#a7a7a7" stroke-width="1.51"></path><path d="M1346,92L1459,145L1528,-87Z" fill="#9d9d9d" stroke="#9d9d9d" stroke-width="1.51"></path><path d="M1336,-68L1346,92L1528,-87Z" fill="#a4a4a4" stroke="#a4a4a4" stroke-width="1.51"></path><path d="M1525,981L1328,1135L1536,1183Z" fill="#464646" stroke="#464646" stroke-width="1.51"></path><path d="M1328,1135L1459,1292L1536,1183Z" fill="#3d3d3d" stroke="#3d3d3d" stroke-width="1.51"></path><path d="M1483,882L1386,970L1525,981Z" fill="#575757" stroke="#575757" stroke-width="1.51"></path><path d="M457,1269L38,1308L684,1312Z" fill="#6b6b6b" stroke="#6b6b6b" stroke-width="1.51"></path><path d="M1449,395L1361,410L1479,563Z" fill="#828282" stroke="#828282" stroke-width="1.51"></path><path d="M1311,715L1290,878L1483,882Z" fill="#676767" stroke="#676767" stroke-width="1.51"></path><path d="M1479,563L1311,715L1506,660Z" fill="#727272" stroke="#727272" stroke-width="1.51"></path><path d="M1352,200L1361,410L1441,219Z" fill="#949494" stroke="#949494" stroke-width="1.51"></path><path d="M1441,219L1361,410L1449,395Z" fill="#8d8d8d" stroke="#8d8d8d" stroke-width="1.51"></path><path d="M1361,410L1284,517L1479,563Z" fill="#818181" stroke="#818181" stroke-width="1.51"></path><path d="M1284,517L1311,715L1479,563Z" fill="#7a7a7a" stroke="#7a7a7a" stroke-width="1.51"></path><path d="M1290,878L1386,970L1483,882Z" fill="#5f5f5f" stroke="#5f5f5f" stroke-width="1.51"></path><path d="M1328,1135L1288,1341L1459,1292Z" fill="#3d3d3d" stroke="#3d3d3d" stroke-width="1.51"></path><path d="M1352,200L1441,219L1459,145Z" fill="#979797" stroke="#979797" stroke-width="1.51"></path><path d="M1346,92L1352,200L1459,145Z" fill="#9c9c9c" stroke="#9c9c9c" stroke-width="1.51"></path><path d="M842,-262L1026,-184L1182,-206Z" fill="#c3c3c3" stroke="#c3c3c3" stroke-width="1.51"></path><path d="M1202,1275L1288,1341L1328,1135Z" fill="#424242" stroke="#424242" stroke-width="1.51"></path><path d="M1167,193L1220,435L1352,200Z" fill="#9c9c9c" stroke="#9c9c9c" stroke-width="1.51"></path><path d="M1352,200L1220,435L1361,410Z" fill="#939393" stroke="#939393" stroke-width="1.51"></path><path d="M1137,966L1328,1135L1386,970Z" fill="#585858" stroke="#585858" stroke-width="1.51"></path><path d="M1290,878L1137,966L1386,970Z" fill="#636363" stroke="#636363" stroke-width="1.51"></path><path d="M1230,-103L1336,-68L1389,-247Z" fill="#adadad" stroke="#adadad" stroke-width="1.51"></path><path d="M1182,-206L1230,-103L1389,-247Z" fill="#b3b3b3" stroke="#b3b3b3" stroke-width="1.51"></path><path d="M1284,517L1204,694L1311,715Z" fill="#7b7b7b" stroke="#7b7b7b" stroke-width="1.51"></path><path d="M1197,1146L1202,1275L1328,1135Z" fill="#494949" stroke="#494949" stroke-width="1.51"></path><path d="M1137,966L1197,1146L1328,1135Z" fill="#555555" stroke="#555555" stroke-width="1.51"></path><path d="M1336,-68L1204,71L1346,92Z" fill="#a8a8a8" stroke="#a8a8a8" stroke-width="1.51"></path><path d="M1346,92L1204,71L1352,200Z" fill="#a2a2a2" stroke="#a2a2a2" stroke-width="1.51"></path><path d="M1204,71L1167,193L1352,200Z" fill="#a4a4a4" stroke="#a4a4a4" stroke-width="1.51"></path><path d="M1220,435L1284,517L1361,410Z" fill="#8b8b8b" stroke="#8b8b8b" stroke-width="1.51"></path><path d="M1216,874L1137,966L1290,878Z" fill="#686868" stroke="#686868" stroke-width="1.51"></path><path d="M1230,-103L1204,71L1336,-68Z" fill="#adadad" stroke="#adadad" stroke-width="1.51"></path><path d="M1216,874L1290,878L1311,715Z" fill="#6c6c6c" stroke="#6c6c6c" stroke-width="1.51"></path><path d="M1220,435L1237,502L1284,517Z" fill="#8a8a8a" stroke="#8a8a8a" stroke-width="1.51"></path><path d="M1202,1275L1061,1261L1288,1341Z" fill="#434343" stroke="#434343" stroke-width="1.51"></path><path d="M1204,694L1216,874L1311,715Z" fill="#737373" stroke="#737373" stroke-width="1.51"></path><path d="M1237,502L1204,694L1284,517Z" fill="#838383" stroke="#838383" stroke-width="1.51"></path><path d="M1005,262L1018,383L1167,193Z" fill="#a7a7a7" stroke="#a7a7a7" stroke-width="1.51"></path><path d="M1204,694L1050,786L1216,874Z" fill="#767676" stroke="#767676" stroke-width="1.51"></path><path d="M1167,193L1018,383L1220,435Z" fill="#9e9e9e" stroke="#9e9e9e" stroke-width="1.51"></path><path d="M1086,-6L1204,71L1230,-103Z" fill="#b1b1b1" stroke="#b1b1b1" stroke-width="1.51"></path><path d="M1220,435L1018,551L1237,502Z" fill="#8e8e8e" stroke="#8e8e8e" stroke-width="1.51"></path><path d="M1018,551L1204,694L1237,502Z" fill="#878787" stroke="#878787" stroke-width="1.51"></path><path d="M1182,-206L1086,-6L1230,-103Z" fill="#b6b6b6" stroke="#b6b6b6" stroke-width="1.51"></path><path d="M1026,-184L1086,-6L1182,-206Z" fill="#bbbbbb" stroke="#bbbbbb" stroke-width="1.51"></path><path d="M1137,966L1052,989L1197,1146Z" fill="#606060" stroke="#606060" stroke-width="1.51"></path><path d="M1052,989L1064,1166L1197,1146Z" fill="#595959" stroke="#595959" stroke-width="1.51"></path><path d="M1197,1146L1064,1166L1202,1275Z" fill="#4d4d4d" stroke="#4d4d4d" stroke-width="1.51"></path><path d="M1064,1166L1061,1261L1202,1275Z" fill="#4c4c4c" stroke="#4c4c4c" stroke-width="1.51"></path><path d="M1018,551L1020,699L1204,694Z" fill="#858585" stroke="#858585" stroke-width="1.51"></path><path d="M1018,383L1018,551L1220,435Z" fill="#969696" stroke="#969696" stroke-width="1.51"></path><path d="M1050,786L1137,966L1216,874Z" fill="#6f6f6f" stroke="#6f6f6f" stroke-width="1.51"></path><path d="M1020,699L1050,786L1204,694Z" fill="#7e7e7e" stroke="#7e7e7e" stroke-width="1.51"></path><path d="M1037,136L1167,193L1204,71Z" fill="#ababab" stroke="#ababab" stroke-width="1.51"></path><path d="M1086,-6L1037,136L1204,71Z" fill="#b1b1b1" stroke="#b1b1b1" stroke-width="1.51"></path><path d="M1050,786L1052,989L1137,966Z" fill="#707070" stroke="#707070" stroke-width="1.51"></path><path d="M1037,136L1005,262L1167,193Z" fill="#ababab" stroke="#ababab" stroke-width="1.51"></path><path d="M869,791L894,980L1050,786Z" fill="#7d7d7d" stroke="#7d7d7d" stroke-width="1.51"></path><path d="M1050,786L894,980L1052,989Z" fill="#737373" stroke="#737373" stroke-width="1.51"></path><path d="M1052,989L934,1170L1064,1166Z" fill="#5d5d5d" stroke="#5d5d5d" stroke-width="1.51"></path><path d="M1026,-184L871,-78L1086,-6Z" fill="#c0c0c0" stroke="#c0c0c0" stroke-width="1.51"></path><path d="M842,59L1037,136L1086,-6Z" fill="#b9b9b9" stroke="#b9b9b9" stroke-width="1.51"></path><path d="M871,-78L842,59L1086,-6Z" fill="#c0c0c0" stroke="#c0c0c0" stroke-width="1.51"></path><path d="M937,408L1018,551L1018,383Z" fill="#9c9c9c" stroke="#9c9c9c" stroke-width="1.51"></path><path d="M1018,551L906,589L1020,699Z" fill="#8e8e8e" stroke="#8e8e8e" stroke-width="1.51"></path><path d="M894,980L934,1170L1052,989Z" fill="#686868" stroke="#686868" stroke-width="1.51"></path><path d="M934,1170L1061,1261L1064,1166Z" fill="#545454" stroke="#545454" stroke-width="1.51"></path><path d="M934,1170L867,1269L1061,1261Z" fill="#545454" stroke="#545454" stroke-width="1.51"></path><path d="M1005,262L935,292L1018,383Z" fill="#a9a9a9" stroke="#a9a9a9" stroke-width="1.51"></path><path d="M1020,699L869,791L1050,786Z" fill="#828282" stroke="#828282" stroke-width="1.51"></path><path d="M935,292L1005,262L1037,136Z" fill="#aeaeae" stroke="#aeaeae" stroke-width="1.51"></path><path d="M842,59L935,292L1037,136Z" fill="#b6b6b6" stroke="#b6b6b6" stroke-width="1.51"></path><path d="M937,408L906,589L1018,551Z" fill="#989898" stroke="#989898" stroke-width="1.51"></path><path d="M935,292L937,408L1018,383Z" fill="#a7a7a7" stroke="#a7a7a7" stroke-width="1.51"></path><path d="M842,-262L871,-78L1026,-184Z" fill="#c9c9c9" stroke="#c9c9c9" stroke-width="1.51"></path><path d="M906,589L842,643L1020,699Z" fill="#8f8f8f" stroke="#8f8f8f" stroke-width="1.51"></path><path d="M842,643L869,791L1020,699Z" fill="#8a8a8a" stroke="#8a8a8a" stroke-width="1.51"></path><path d="M842,-262L759,-207L871,-78Z" fill="#cfcfcf" stroke="#cfcfcf" stroke-width="1.51"></path><path d="M778,1038L786,1111L894,980Z" fill="#717171" stroke="#717171" stroke-width="1.51"></path><path d="M782,431L745,556L906,589Z" fill="#a1a1a1" stroke="#a1a1a1" stroke-width="1.51"></path><path d="M894,980L786,1111L934,1170Z" fill="#686868" stroke="#686868" stroke-width="1.51"></path><path d="M842,59L725,204L935,292Z" fill="#bbbbbb" stroke="#bbbbbb" stroke-width="1.51"></path><path d="M935,292L782,431L937,408Z" fill="#aaaaaa" stroke="#aaaaaa" stroke-width="1.51"></path><path d="M782,431L906,589L937,408Z" fill="#a1a1a1" stroke="#a1a1a1" stroke-width="1.51"></path><path d="M725,204L782,431L935,292Z" fill="#b4b4b4" stroke="#b4b4b4" stroke-width="1.51"></path><path d="M786,1111L867,1269L934,1170Z" fill="#5e5e5e" stroke="#5e5e5e" stroke-width="1.51"></path><path d="M93,1285L38,1308L457,1269Z" fill="#737373" stroke="#737373" stroke-width="1.51"></path><path d="M463,-253L759,-207L842,-262Z" fill="#dadada" stroke="#dadada" stroke-width="1.51"></path><path d="M740,81L725,204L842,59Z" fill="#c4c4c4" stroke="#c4c4c4" stroke-width="1.51"></path><path d="M759,-207L780,-74L871,-78Z" fill="#cecece" stroke="#cecece" stroke-width="1.51"></path><path d="M869,791L758,798L894,980Z" fill="#828282" stroke="#828282" stroke-width="1.51"></path><path d="M758,798L778,1038L894,980Z" fill="#7d7d7d" stroke="#7d7d7d" stroke-width="1.51"></path><path d="M745,556L842,643L906,589Z" fill="#999999" stroke="#999999" stroke-width="1.51"></path><path d="M842,643L758,798L869,791Z" fill="#8d8d8d" stroke="#8d8d8d" stroke-width="1.51"></path><path d="M780,-74L842,59L871,-78Z" fill="#c8c8c8" stroke="#c8c8c8" stroke-width="1.51"></path><path d="M786,1111L684,1312L867,1269Z" fill="#5f5f5f" stroke="#5f5f5f" stroke-width="1.51"></path><path d="M683,699L758,798L842,643Z" fill="#949494" stroke="#949494" stroke-width="1.51"></path><path d="M463,-253L528,-194L759,-207Z" fill="#dfdfdf" stroke="#dfdfdf" stroke-width="1.51"></path><path d="M758,798L608,992L778,1038Z" fill="#838383" stroke="#838383" stroke-width="1.51"></path><path d="M745,556L683,699L842,643Z" fill="#9b9b9b" stroke="#9b9b9b" stroke-width="1.51"></path><path d="M780,-74L740,81L842,59Z" fill="#c8c8c8" stroke="#c8c8c8" stroke-width="1.51"></path><path d="M614,1279L457,1269L684,1312Z" fill="#646464" stroke="#646464" stroke-width="1.51"></path><path d="M607,818L608,992L758,798Z" fill="#8d8d8d" stroke="#8d8d8d" stroke-width="1.51"></path><path d="M759,-207L587,-88L780,-74Z" fill="#d5d5d5" stroke="#d5d5d5" stroke-width="1.51"></path><path d="M587,-88L740,81L780,-74Z" fill="#d0d0d0" stroke="#d0d0d0" stroke-width="1.51"></path><path d="M579,401L745,556L782,431Z" fill="#adadad" stroke="#adadad" stroke-width="1.51"></path><path d="M725,204L579,401L782,431Z" fill="#b9b9b9" stroke="#b9b9b9" stroke-width="1.51"></path><path d="M614,1279L684,1312L786,1111Z" fill="#636363" stroke="#636363" stroke-width="1.51"></path><path d="M778,1038L583,1088L786,1111Z" fill="#737373" stroke="#737373" stroke-width="1.51"></path><path d="M583,1088L614,1279L786,1111Z" fill="#6c6c6c" stroke="#6c6c6c" stroke-width="1.51"></path><path d="M608,992L583,1088L778,1038Z" fill="#7a7a7a" stroke="#7a7a7a" stroke-width="1.51"></path><path d="M236,1244L93,1285L457,1269Z" fill="#727272" stroke="#727272" stroke-width="1.51"></path><path d="M541,260L579,401L725,204Z" fill="#c2c2c2" stroke="#c2c2c2" stroke-width="1.51"></path><path d="M592,117L725,204L740,81Z" fill="#c9c9c9" stroke="#c9c9c9" stroke-width="1.51"></path><path d="M587,-88L592,117L740,81Z" fill="#d1d1d1" stroke="#d1d1d1" stroke-width="1.51"></path><path d="M593,594L683,699L745,556Z" fill="#a2a2a2" stroke="#a2a2a2" stroke-width="1.51"></path><path d="M579,401L593,594L745,556Z" fill="#acacac" stroke="#acacac" stroke-width="1.51"></path><path d="M683,699L607,818L758,798Z" fill="#949494" stroke="#949494" stroke-width="1.51"></path><path d="M528,-194L587,-88L759,-207Z" fill="#dbdbdb" stroke="#dbdbdb" stroke-width="1.51"></path><path d="M592,117L541,260L725,204Z" fill="#c8c8c8" stroke="#c8c8c8" stroke-width="1.51"></path><path d="M574,660L607,818L683,699Z" fill="#9b9b9b" stroke="#9b9b9b" stroke-width="1.51"></path><path d="M593,594L574,660L683,699Z" fill="#a1a1a1" stroke="#a1a1a1" stroke-width="1.51"></path><path d="M414,-111L400,96L587,-88Z" fill="#dddddd" stroke="#dddddd" stroke-width="1.51"></path><path d="M587,-88L400,96L592,117Z" fill="#d6d6d6" stroke="#d6d6d6" stroke-width="1.51"></path><path d="M579,401L379,515L593,594Z" fill="#b3b3b3" stroke="#b3b3b3" stroke-width="1.51"></path><path d="M436,789L384,954L607,818Z" fill="#969696" stroke="#969696" stroke-width="1.51"></path><path d="M574,660L470,742L607,818Z" fill="#9c9c9c" stroke="#9c9c9c" stroke-width="1.51"></path><path d="M607,818L384,954L608,992Z" fill="#8e8e8e" stroke="#8e8e8e" stroke-width="1.51"></path><path d="M583,1088L457,1269L614,1279Z" fill="#6c6c6c" stroke="#6c6c6c" stroke-width="1.51"></path><path d="M403,408L379,515L579,401Z" fill="#bcbcbc" stroke="#bcbcbc" stroke-width="1.51"></path><path d="M410,1085L457,1269L583,1088Z" fill="#747474" stroke="#747474" stroke-width="1.51"></path><path d="M410,1085L583,1088L608,992Z" fill="#7e7e7e" stroke="#7e7e7e" stroke-width="1.51"></path><path d="M384,954L410,1085L608,992Z" fill="#878787" stroke="#878787" stroke-width="1.51"></path><path d="M470,742L436,789L607,818Z" fill="#9b9b9b" stroke="#9b9b9b" stroke-width="1.51"></path><path d="M400,96L541,260L592,117Z" fill="#d0d0d0" stroke="#d0d0d0" stroke-width="1.51"></path><path d="M379,515L574,660L593,594Z" fill="#ababab" stroke="#ababab" stroke-width="1.51"></path><path d="M541,260L403,408L579,401Z" fill="#c2c2c2" stroke="#c2c2c2" stroke-width="1.51"></path><path d="M528,-194L414,-111L587,-88Z" fill="#dfdfdf" stroke="#dfdfdf" stroke-width="1.51"></path><path d="M379,515L338,646L574,660Z" fill="#adadad" stroke="#adadad" stroke-width="1.51"></path><path d="M338,646L470,742L574,660Z" fill="#a6a6a6" stroke="#a6a6a6" stroke-width="1.51"></path><path d="M383,276L403,408L541,260Z" fill="#c8c8c8" stroke="#c8c8c8" stroke-width="1.51"></path><path d="M400,96L383,276L541,260Z" fill="#cfcfcf" stroke="#cfcfcf" stroke-width="1.51"></path><path d="M463,-253L414,-111L528,-194Z" fill="#e3e3e3" stroke="#e3e3e3" stroke-width="1.51"></path><path d="M-151,-210L1,-190L254,-261Z" fill="#f5f5f5" stroke="#f5f5f5" stroke-width="1.51"></path><path d="M329,212L383,276L400,96Z" fill="#d4d4d4" stroke="#d4d4d4" stroke-width="1.51"></path><path d="M339,-116L400,96L414,-111Z" fill="#e1e1e1" stroke="#e1e1e1" stroke-width="1.51"></path><path d="M410,1085L287,1138L457,1269Z" fill="#777777" stroke="#777777" stroke-width="1.51"></path><path d="M339,-116L414,-111L463,-253Z" fill="#e5e5e5" stroke="#e5e5e5" stroke-width="1.51"></path><path d="M338,646L436,789L470,742Z" fill="#a4a4a4" stroke="#a4a4a4" stroke-width="1.51"></path><path d="M254,-261L339,-116L463,-253Z" fill="#eaeaea" stroke="#eaeaea" stroke-width="1.51"></path><path d="M287,1138L236,1244L457,1269Z" fill="#757575" stroke="#757575" stroke-width="1.51"></path><path d="M339,-116L247,112L400,96Z" fill="#dfdfdf" stroke="#dfdfdf" stroke-width="1.51"></path><path d="M384,954L293,1007L410,1085Z" fill="#8b8b8b" stroke="#8b8b8b" stroke-width="1.51"></path><path d="M244,822L384,954L436,789Z" fill="#9b9b9b" stroke="#9b9b9b" stroke-width="1.51"></path><path d="M338,646L244,822L436,789Z" fill="#a5a5a5" stroke="#a5a5a5" stroke-width="1.51"></path><path d="M274,492L379,515L403,408Z" fill="#bebebe" stroke="#bebebe" stroke-width="1.51"></path><path d="M383,276L248,365L403,408Z" fill="#cacaca" stroke="#cacaca" stroke-width="1.51"></path><path d="M293,1007L287,1138L410,1085Z" fill="#848484" stroke="#848484" stroke-width="1.51"></path><path d="M247,112L329,212L400,96Z" fill="#d9d9d9" stroke="#d9d9d9" stroke-width="1.51"></path><path d="M248,365L274,492L403,408Z" fill="#c4c4c4" stroke="#c4c4c4" stroke-width="1.51"></path><path d="M179,-109L247,112L339,-116Z" fill="#e6e6e6" stroke="#e6e6e6" stroke-width="1.51"></path><path d="M274,492L338,646L379,515Z" fill="#b7b7b7" stroke="#b7b7b7" stroke-width="1.51"></path><path d="M329,212L248,365L383,276Z" fill="#d0d0d0" stroke="#d0d0d0" stroke-width="1.51"></path><path d="M244,822L293,1007L384,954Z" fill="#979797" stroke="#979797" stroke-width="1.51"></path><path d="M179,-109L116,38L247,112Z" fill="#e6e6e6" stroke="#e6e6e6" stroke-width="1.51"></path><path d="M145,264L248,365L329,212Z" fill="#d3d3d3" stroke="#d3d3d3" stroke-width="1.51"></path><path d="M118,680L244,822L338,646Z" fill="#acacac" stroke="#acacac" stroke-width="1.51"></path><path d="M274,492L153,561L338,646Z" fill="#b8b8b8" stroke="#b8b8b8" stroke-width="1.51"></path><path d="M254,-261L185,-191L339,-116Z" fill="#ececec" stroke="#ececec" stroke-width="1.51"></path><path d="M185,-191L179,-109L339,-116Z" fill="#ebebeb" stroke="#ebebeb" stroke-width="1.51"></path><path d="M153,561L118,680L338,646Z" fill="#b5b5b5" stroke="#b5b5b5" stroke-width="1.51"></path><path d="M247,112L145,264L329,212Z" fill="#d9d9d9" stroke="#d9d9d9" stroke-width="1.51"></path><path d="M144,827L155,1039L244,822Z" fill="#9e9e9e" stroke="#9e9e9e" stroke-width="1.51"></path><path d="M248,365L146,437L274,492Z" fill="#c6c6c6" stroke="#c6c6c6" stroke-width="1.51"></path><path d="M164,1111L236,1244L287,1138Z" fill="#7d7d7d" stroke="#7d7d7d" stroke-width="1.51"></path><path d="M164,1111L287,1138L293,1007Z" fill="#868686" stroke="#868686" stroke-width="1.51"></path><path d="M155,1039L164,1111L293,1007Z" fill="#8c8c8c" stroke="#8c8c8c" stroke-width="1.51"></path><path d="M244,822L155,1039L293,1007Z" fill="#979797" stroke="#979797" stroke-width="1.51"></path><path d="M118,680L144,827L244,822Z" fill="#a9a9a9" stroke="#a9a9a9" stroke-width="1.51"></path><path d="M1,-190L185,-191L254,-261Z" fill="#f1f1f1" stroke="#f1f1f1" stroke-width="1.51"></path><path d="M146,437L153,561L274,492Z" fill="#c1c1c1" stroke="#c1c1c1" stroke-width="1.51"></path><path d="M116,38L145,264L247,112Z" fill="#e0e0e0" stroke="#e0e0e0" stroke-width="1.51"></path><path d="M145,264L146,437L248,365Z" fill="#d0d0d0" stroke="#d0d0d0" stroke-width="1.51"></path><path d="M164,1111L93,1285L236,1244Z" fill="#7a7a7a" stroke="#7a7a7a" stroke-width="1.51"></path><path d="M116,38L16,56L145,264Z" fill="#e4e4e4" stroke="#e4e4e4" stroke-width="1.51"></path><path d="M145,264L-34,375L146,437Z" fill="#d3d3d3" stroke="#d3d3d3" stroke-width="1.51"></path><path d="M144,827L-39,1017L155,1039Z" fill="#9b9b9b" stroke="#9b9b9b" stroke-width="1.51"></path><path d="M8,1116L93,1285L164,1111Z" fill="#818181" stroke="#818181" stroke-width="1.51"></path><path d="M29,-40L116,38L179,-109Z" fill="#ebebeb" stroke="#ebebeb" stroke-width="1.51"></path><path d="M1,-190L179,-109L185,-191Z" fill="#f0f0f0" stroke="#f0f0f0" stroke-width="1.51"></path><path d="M-70,869L-39,1017L144,827Z" fill="#a3a3a3" stroke="#a3a3a3" stroke-width="1.51"></path><path d="M16,56L-60,227L145,264Z" fill="#e1e1e1" stroke="#e1e1e1" stroke-width="1.51"></path><path d="M1,-190L29,-40L179,-109Z" fill="#f0f0f0" stroke="#f0f0f0" stroke-width="1.51"></path><path d="M146,437L-53,515L153,561Z" fill="#c5c5c5" stroke="#c5c5c5" stroke-width="1.51"></path><path d="M155,1039L8,1116L164,1111Z" fill="#8a8a8a" stroke="#8a8a8a" stroke-width="1.51"></path><path d="M118,680L-70,869L144,827Z" fill="#acacac" stroke="#acacac" stroke-width="1.51"></path><path d="M-18,642L118,680L153,561Z" fill="#b9b9b9" stroke="#b9b9b9" stroke-width="1.51"></path><path d="M-39,1017L8,1116L155,1039Z" fill="#909090" stroke="#909090" stroke-width="1.51"></path><path d="M-53,515L-18,642L153,561Z" fill="#c0c0c0" stroke="#c0c0c0" stroke-width="1.51"></path><path d="M-18,642L-70,869L118,680Z" fill="#b2b2b2" stroke="#b2b2b2" stroke-width="1.51"></path><path d="M-60,227L-34,375L145,264Z" fill="#dadada" stroke="#dadada" stroke-width="1.51"></path><path d="M-34,375L-53,515L146,437Z" fill="#cccccc" stroke="#cccccc" stroke-width="1.51"></path><path d="M8,1116L38,1308L93,1285Z" fill="#7c7c7c" stroke="#7c7c7c" stroke-width="1.51"></path><path d="M29,-40L16,56L116,38Z" fill="#eaeaea" stroke="#eaeaea" stroke-width="1.51"></path><path d="M-146,729L-70,869L-18,642Z" fill="#b3b3b3" stroke="#b3b3b3" stroke-width="1.51"></path><path d="M-131,1085L-134,1308L8,1116Z" fill="#858585" stroke="#858585" stroke-width="1.51"></path><path d="M1,-190L-158,-33L29,-40Z" fill="#f3f3f3" stroke="#f3f3f3" stroke-width="1.51"></path><path d="M8,1116L-134,1308L38,1308Z" fill="#7d7d7d" stroke="#7d7d7d" stroke-width="1.51"></path><path d="M-158,-33L16,56L29,-40Z" fill="#eeeeee" stroke="#eeeeee" stroke-width="1.51"></path><path d="M-151,-210L-158,-33L1,-190Z" fill="#f6f6f6" stroke="#f6f6f6" stroke-width="1.51"></path><path d="M-207,67L-60,227L16,56Z" fill="#e8e8e8" stroke="#e8e8e8" stroke-width="1.51"></path><path d="M-158,-33L-207,67L16,56Z" fill="#eeeeee" stroke="#eeeeee" stroke-width="1.51"></path><path d="M-126,483L-53,515L-34,375Z" fill="#cdcdcd" stroke="#cdcdcd" stroke-width="1.51"></path><path d="M-39,1017L-131,1085L8,1116Z" fill="#909090" stroke="#909090" stroke-width="1.51"></path><path d="M-126,483L-146,729L-53,515Z" fill="#c3c3c3" stroke="#c3c3c3" stroke-width="1.51"></path><path d="M-60,227L-193,293L-34,375Z" fill="#dddddd" stroke="#dddddd" stroke-width="1.51"></path><path d="M-53,515L-146,729L-18,642Z" fill="#bdbdbd" stroke="#bdbdbd" stroke-width="1.51"></path><path d="M-146,729L-174,833L-70,869Z" fill="#aeaeae" stroke="#aeaeae" stroke-width="1.51"></path><path d="M-70,869L-193,1025L-39,1017Z" fill="#9f9f9f" stroke="#9f9f9f" stroke-width="1.51"></path><path d="M-208,395L-126,483L-34,375Z" fill="#d2d2d2" stroke="#d2d2d2" stroke-width="1.51"></path><path d="M-193,293L-208,395L-34,375Z" fill="#d9d9d9" stroke="#d9d9d9" stroke-width="1.51"></path><path d="M-193,1025L-131,1085L-39,1017Z" fill="#969696" stroke="#969696" stroke-width="1.51"></path><path d="M-174,833L-193,1025L-70,869Z" fill="#a6a6a6" stroke="#a6a6a6" stroke-width="1.51"></path><path d="M-207,67L-193,293L-60,227Z" fill="#e5e5e5" stroke="#e5e5e5" stroke-width="1.51"></path><path d="M-193,1025L-134,1308L-131,1085Z" fill="#8a8a8a" stroke="#8a8a8a" stroke-width="1.51"></path><path d="M-208,395L-146,729L-126,483Z" fill="#c8c8c8" stroke="#c8c8c8" stroke-width="1.51"></path><path d="M-207,67L-158,-33L-151,-210Z" fill="#f5f5f5" stroke="#f5f5f5" stroke-width="1.51"></path><path d="M-208,395L-174,833L-146,729Z" fill="#bebebe" stroke="#bebebe" stroke-width="1.51"></path><path d="M-208,395L-193,1025L-174,833Z" fill="#b5b5b5" stroke="#b5b5b5" stroke-width="1.51"></path><path d="M-207,67L-208,395L-193,293Z" fill="#e2e2e2" stroke="#e2e2e2" stroke-width="1.51"></path></svg>